<?xml version="1.0" encoding="utf-8"?>
<!-- Generator: Adobe Illustrator 23.0.0, SVG Export Plug-In . SVG Version: 6.00 Build 0)  -->
<svg version="1.1" id="Freelancer" xmlns="http://www.w3.org/2000/svg" xmlns:xlink="http://www.w3.org/1999/xlink" x="0px" y="0px"
	 viewBox="0 0 93.5 113.4" style="enable-background:new 0 0 93.5 113.4;" xml:space="preserve">
<g id="Tux">
	<path d="M55.2,97c-0.4-0.2-0.7-0.4-0.7-0.9s-0.3-0.8-0.3-0.8s0.3-1,0-1.8s-1.2-2.2-2-3.2c-0.7-1-0.1-2.2-0.8-3.7s-2.4-1.4-3.3-0.8
		c-0.9,0.6-0.6,2.2-0.6,3c0,0.7,0,1.3-0.1,1.5s-0.7,0.9-1.1,1.5c-0.4,0.6-0.7,1.8-1,2.3s-0.1,1-0.1,1s-0.2,0.1-0.4,0.4
		s-0.5,0.5-1,0.6s-0.5,0.5-0.4,0.9s0,0.6-0.2,1.1s0.6,0.7,1.4,0.7c0.7,0.1,1.6,0.6,2.3,0.7C47.8,99.6,48,99,48,99s0.8-0.2,1.6-0.2
		s1.6,0.2,1.6,0.2s0.2,0.4,0.4,0.5c0.3,0.2,0.9,0.2,1.3-0.2c0.4-0.4,1.5-0.9,2-1.3C55.7,97.7,55.5,97.1,55.2,97z M50,87.3
		c0.4,0,0.7,0.4,0.7,0.8c0,0.3-0.2,0.6-0.4,0.7c-0.1,0-0.1-0.1-0.2-0.1c0.1-0.1,0.2-0.2,0.2-0.4c0-0.3-0.2-0.5-0.4-0.5
		s-0.4,0.2-0.4,0.5c0,0.1,0,0.2,0.1,0.3c-0.1,0-0.2-0.1-0.3-0.1c0-0.1-0.1-0.2-0.1-0.4C49.3,87.7,49.7,87.3,50,87.3z M50,89.1
		c0.2,0.1,0.4,0.2,0.4,0.3c0,0.1-0.1,0.1-0.4,0.3c-0.3,0.2-0.8,0.5-1,0.5s-0.3-0.1-0.5-0.2S48,89.6,48,89.4c0,0,0.3-0.2,0.4-0.3
		c0.1-0.1,0.4-0.4,0.6-0.3C49.3,88.8,49.8,89,50,89.1z M48.3,87.4c0.3,0,0.5,0.4,0.5,0.8c0,0.1,0,0.2,0,0.2c-0.1,0-0.1,0.1-0.2,0.1
		l-0.1,0.1c0-0.1,0.1-0.2,0-0.3c0-0.2-0.2-0.4-0.4-0.4s-0.3,0.2-0.2,0.5c0,0.2,0.2,0.4,0.4,0.4l0,0c-0.1,0.1-0.1,0.1-0.2,0.2
		c-0.2-0.1-0.4-0.4-0.4-0.8C47.7,87.8,48,87.4,48.3,87.4z M47.7,98.5c-0.1,0.3-0.4,0.5-0.4,0.5c-0.3,0.1-1.3-0.3-1.7-0.5
		s-1.5-0.2-1.6-0.4c-0.1-0.2,0.1-0.5,0.1-0.8c0.1-0.3-0.1-0.5-0.1-0.8c0.1-0.2,0.7-0.2,1-0.4c0.3-0.2,0.3-0.6,0.5-0.7
		s0.6,0.3,0.8,0.6c0.2,0.2,0.8,1.3,1,1.6C47.5,97.9,47.8,98.2,47.7,98.5z M51.6,95.5c-0.1,0.3-0.1,1.4-0.1,1.4s-0.7,0.9-1.7,1.1
		c-1.1,0.2-1.6,0-1.6,0l-0.6-0.7c0,0,0.5-0.1,0.4-0.5c-0.1-0.5-1.4-1.1-1.6-1.7c-0.2-0.6,0-1.5,0.3-2s0.5-1.5,0.8-1.9
		s0.5-1.1,0.4-1.4c0,0,0.7,0.8,1.1,0.7c0.5-0.1,1.5-0.9,1.6-0.8c0.2,0.1,1.5,3,1.6,4c0.1,0.9-0.1,1.6-0.1,1.6S51.7,95.2,51.6,95.5z
		 M55,97.5c-0.2,0.2-1.3,0.6-1.7,1c-0.3,0.4-0.8,0.6-1.1,0.6c-0.3-0.1-0.5-0.5-0.4-1S52,97,52,96.6s-0.1-0.8,0-0.9s0.2,0,0.2,0
		s-0.1,0.6,0.3,0.8c0.4,0.2,1-0.1,1.1-0.2c0.2-0.2,0.3-0.4,0.3-0.4s0.2,0.1,0.2,0.4s0.1,0.7,0.4,0.8C54.8,97.2,55.2,97.4,55,97.5z"
		/>
</g>
<g id="Person_1_" transform="translate(-26.73595,-26.385871)">
	<path id="path7922" d="M41.9,138.6c-1.6-0.2-3.2-1.3-4.7-3.1c-1.1-1.3-1.4-1.9-2.1-3.5c-1-2.4-1.6-4.7-1.8-7.3
		c-0.2-2.2-0.2-3,0.3-7.7c0.7-7,2.2-12.8,4.6-18.8c4.2-10.2,11-18.6,19.1-23.6c1.7-1,3.4-2.4,3.8-2.4c4.6,9.8,9.6,19.9,14.6,29.8
		c5.1-9.4,9.4-19.4,14.6-29.5c0.1,0,0.7,0.4,1.8,1c13.1,7.1,22.6,22.1,25.3,39.7c1,6.3,1,11.3,0.3,14.8c-1,4.6-3.2,8.2-6,9.8
		c-1.8,1.1-0.3,1.1-36.1,1C57.6,138.7,42.4,138.6,41.9,138.6L41.9,138.6z M105.8,104.5H45.5c11,27.7,7.7,19.5,11,27.7h38.4
		C105.8,104.5,94.9,132.1,105.8,104.5z"/>
	<path id="path7924" d="M71.4,87.5l4.3-7.8l4.3,7.6c-0.6,3.6-2.2,5.6-4.3,8.9C73.7,93,71.9,90.9,71.4,87.5z"/>
	<circle id="path7930" cx="74.3" cy="50.4" r="18.4"/>
	<path id="path7932" d="M72.1,74.6l3.6-2.8c3.5,2.8,0,0,3.3,2.7l0.2,0.1c-0.7,2.3-1.9,2.9-3.4,4.1l-0.1,0.1
		C74,77.9,72.9,76.5,72.1,74.6z"/>
</g>
</svg>
