<?xml version="1.0" encoding="UTF-8" standalone="no"?>
<svg xmlns:dc="http://purl.org/dc/elements/1.1/" xmlns:cc="http://creativecommons.org/ns#" xmlns:rdf="http://www.w3.org/1999/02/22-rdf-syntax-ns#" xmlns:svg="http://www.w3.org/2000/svg" xmlns="http://www.w3.org/2000/svg" xmlns:sodipodi="http://sodipodi.sourceforge.net/DTD/sodipodi-0.dtd" xmlns:inkscape="http://www.inkscape.org/namespaces/inkscape" version="1.1" x="0px" y="0px" viewBox="0 0 100 100" xml:space="preserve" id="svg14" sodipodi:docname="noun_educational program_2059040.svg" width="100" height="100" inkscape:version="0.92.1 r15371"><script xmlns="" id="__gaOptOutExtension"/><metadata id="metadata20"><rdf:RDF><cc:Work rdf:about=""><dc:format>image/svg+xml</dc:format><dc:type rdf:resource="http://purl.org/dc/dcmitype/StillImage"/><dc:title/></cc:Work></rdf:RDF></metadata><defs id="defs18"/><sodipodi:namedview pagecolor="#ffffff" bordercolor="#666666" borderopacity="1" objecttolerance="10" gridtolerance="10" guidetolerance="10" inkscape:pageopacity="0" inkscape:pageshadow="2" inkscape:window-width="640" inkscape:window-height="480" id="namedview16" showgrid="false" showguides="false" inkscape:zoom="1.888" inkscape:cx="50" inkscape:cy="62.5" inkscape:window-x="640" inkscape:window-y="300" inkscape:window-maximized="0" inkscape:current-layer="svg14"/><g id="g8" transform="matrix(1.1787643,0,0,1.1787643,-9.3767972,-8.787643)"><path d="M 80.000977,10 H 20.230469 c -2.934571,0 -5.321289,2.367188 -5.321289,5.276367 v 42.182678 l -4.861328,28.674744 c -0.1630863,0.958008 0.103515,1.935059 0.732422,2.680176 C 11.416992,89.567871 12.349609,90 13.34082,90 h 73.31836 c 0.985351,0 1.915039,-0.428711 2.550781,-1.175781 0.628906,-0.73877 0.901367,-1.709961 0.74707,-2.665039 L 85.322266,57.464355 V 15.276367 C 85.322266,12.367188 82.935547,10 80.000977,10 Z M 15.115356,68.210937 h 15.806153 l -0.767578,7.782715 H 13.795654 Z M 48.875,58.54541 v 7.665527 H 33.128357 l 0.756042,-7.665527 z m 2,0 h 14.990601 l 0.756042,7.665527 H 50.875 Z m -33.96582,-2 V 20.166504 H 83.322266 V 56.54541 Z m -0.154908,2 h 15.120545 l -0.756043,7.665527 H 15.454468 Z m 16.176819,9.665527 H 48.875 v 7.782715 H 32.163513 Z M 48.875,77.993652 V 88 H 30.979309 l 0.986939,-10.006348 z m 2,0 H 67.783752 L 68.770691,88 H 50.875 Z m 0,-2 v -7.782715 h 15.943909 l 0.767578,7.782715 z M 68.828491,68.210937 H 85.03186 l 1.25708,7.782715 H 69.596069 Z m -0.197265,-2 -0.756043,-7.665527 h 15.59552 l 1.238098,7.665527 z M 20.230469,12 h 59.770508 c 1.831054,0 3.321289,1.469727 3.321289,3.276367 v 2.890137 H 16.90918 V 15.276367 C 16.90918,13.469727 18.399414,12 20.230469,12 Z m -7.921875,75.523926 c -0.251953,-0.29834 -0.354492,-0.672852 -0.289063,-1.055664 l 1.437012,-8.47461 H 29.956665 L 28.969727,88 H 13.34082 c -0.40039,0 -0.776367,-0.173828 -1.032226,-0.476074 z m 75.378906,0.0039 C 87.431641,87.828125 87.057617,88 86.65918,88 H 70.780273 L 69.793335,77.993652 h 16.818603 l 1.370484,8.484864 c 0.06152,0.380859 -0.04297,0.753418 -0.294922,1.049316 z" id="path2" inkscape:connector-curvature="0"/><path d="m 44.287109,29.619629 c -0.178711,-0.30957 -0.508789,-0.5 -0.866211,-0.5 h -9.510742 c -0.357422,0 -0.6875,0.19043 -0.866211,0.5 l -4.754882,8.236328 c -0.178711,0.30957 -0.178711,0.69043 0,1 l 4.754882,8.236328 c 0.178711,0.30957 0.508789,0.5 0.866211,0.5 h 9.510742 c 0.357422,0 0.6875,-0.19043 0.866211,-0.5 l 4.754883,-8.236328 c 0.178711,-0.30957 0.178711,-0.69043 0,-1 z M 42.84375,45.592285 h -8.356445 l -4.177735,-7.236328 4.177735,-7.236328 h 8.356445 l 4.177734,7.236328 z" id="path4" inkscape:connector-curvature="0"/><path d="M 70.844727,29.119629 H 54.561523 c -0.552734,0 -1,0.447754 -1,1 v 16.472656 c 0,0.552246 0.447266,1 1,1 h 16.283204 c 0.552734,0 1,-0.447754 1,-1 V 30.119629 c 0,-0.552246 -0.447266,-1 -1,-1 z m -1,16.472656 H 55.561523 V 31.119629 h 14.283203 z" id="path6" inkscape:connector-curvature="0"/></g></svg>