<?xml version="1.0" encoding="UTF-8"?>
<!DOCTYPE svg PUBLIC "-//W3C//DTD SVG 1.1//EN" "http://www.w3.org/Graphics/SVG/1.1/DTD/svg11.dtd">
<svg xmlns="http://www.w3.org/2000/svg" version="1.1" width="192px" height="192px" style="shape-rendering:geometricPrecision; text-rendering:geometricPrecision; image-rendering:optimizeQuality; fill-rule:evenodd; clip-rule:evenodd" xmlns:xlink="http://www.w3.org/1999/xlink">
<g><path style="opacity:1" fill="#000000" d="M -0.5,-0.5 C 24.1667,-0.5 48.8333,-0.5 73.5,-0.5C 49.0711,43.364 24.4045,87.0306 -0.5,130.5C -0.5,86.8333 -0.5,43.1667 -0.5,-0.5 Z"/></g>
<g><path style="opacity:1" fill="#03020c" d="M 80.5,-0.5 C 83.1667,-0.5 85.8333,-0.5 88.5,-0.5C 59.8354,50.8287 31.1687,102.162 2.5,153.5C 2.5,154.167 2.83333,154.5 3.5,154.5C 3.33043,157.204 1.99709,158.871 -0.5,159.5C -0.5,154.167 -0.5,148.833 -0.5,143.5C 27.0052,95.8269 54.0052,47.8269 80.5,-0.5 Z"/></g>
<g><path style="opacity:1" fill="#05040d" d="M 102.5,-0.5 C 105.167,-0.5 107.833,-0.5 110.5,-0.5C 133.201,39.8878 155.701,80.5545 178,121.5C 182.596,128.488 187.096,135.488 191.5,142.5C 191.5,148.167 191.5,153.833 191.5,159.5C 189.809,158.136 188.142,156.803 186.5,155.5C 186.833,154.833 187.167,154.167 187.5,153.5C 188.043,153.44 188.376,153.107 188.5,152.5C 159.554,101.603 130.887,50.6026 102.5,-0.5 Z"/></g>
<g><path style="opacity:1" fill="#000000" d="M 117.5,-0.5 C 142.167,-0.5 166.833,-0.5 191.5,-0.5C 191.5,43.1667 191.5,86.8333 191.5,130.5C 166.61,87.0626 141.943,43.3959 117.5,-0.5 Z"/></g>
<g><path style="opacity:1" fill="#030206" d="M 172.5,135.5 C 173.11,136.391 173.443,137.391 173.5,138.5C 172.778,138.918 172.278,139.584 172,140.5C 163.637,134.946 155.47,129.279 147.5,123.5C 131.71,94.9054 115.71,66.5721 99.5,38.5C 99.6621,36.4727 99.4955,34.4727 99,32.5C 98.3333,31.1667 97.6667,31.1667 97,32.5C 96.501,36.8206 96.3343,41.1539 96.5,45.5C 96.5,45.8333 96.5,46.1667 96.5,46.5C 95.8333,46.5 95.1667,46.5 94.5,46.5C 94.5,46.1667 94.5,45.8333 94.5,45.5C 94.8092,40.7325 94.3092,36.0658 93,31.5C 90.8634,33.3211 90.0301,35.6544 90.5,38.5C 84.8481,49.1352 79.1815,59.8018 73.5,70.5C 63.3741,88.0718 53.2074,105.738 43,123.5C 42.3083,124.437 42.475,125.103 43.5,125.5C 45.3786,125.393 45.7119,125.893 44.5,127C 32.5524,134.592 21.219,142.758 10.5,151.5C 10.5,151.167 10.5,150.833 10.5,150.5C 13.4065,145.69 16.0731,140.69 18.5,135.5C 44.1714,90.8304 69.8381,46.1637 95.5,1.5C 121.178,46.1941 146.845,90.8607 172.5,135.5 Z"/></g>
<g><path style="opacity:1" fill="#dddefa" d="M 113.5,-0.5 C 114.167,-0.5 114.833,-0.5 115.5,-0.5C 137.42,38.3389 159.087,77.3389 180.5,116.5C 180.5,117.167 180.5,117.833 180.5,118.5C 156.929,79.5793 134.596,39.9126 113.5,-0.5 Z"/></g>
<g><path style="opacity:1" fill="#dbdcfa" d="M 98.5,-0.5 C 99.1667,-0.5 99.8333,-0.5 100.5,-0.5C 123.167,40.1667 145.833,80.8333 168.5,121.5C 168.5,122.167 168.167,122.5 167.5,122.5C 143.729,81.9611 120.729,40.9611 98.5,-0.5 Z"/></g>
<g><path style="opacity:1" fill="#dadafa" d="M 75.5,-0.5 C 76.5,-0.5 77.5,-0.5 78.5,-0.5C 52.4044,46.031 26.071,92.3644 -0.5,138.5C -0.5,137.167 -0.5,135.833 -0.5,134.5C 25.0571,89.729 50.3904,44.729 75.5,-0.5 Z"/></g>
<g><path style="opacity:1" fill="#312daf" d="M 93.5,-0.5 C 95.1667,-0.5 96.8333,-0.5 98.5,-0.5C 120.729,40.9611 143.729,81.9611 167.5,122.5C 169.234,126.3 171.234,129.966 173.5,133.5C 172.662,133.842 172.328,134.508 172.5,135.5C 146.845,90.8607 121.178,46.1941 95.5,1.5C 69.8381,46.1637 44.1714,90.8304 18.5,135.5C 18.6716,134.508 18.3382,133.842 17.5,133.5C 42.8333,88.8333 68.1667,44.1667 93.5,-0.5 Z"/></g>
<g><path style="opacity:1" fill="#7975ca" d="M 93.5,39.5 C 91.0764,42.0078 89.4097,45.0078 88.5,48.5C 84.4164,56.3367 80.0831,64.0034 75.5,71.5C 74.0755,73.0311 73.4088,72.6977 73.5,70.5C 79.1815,59.8018 84.8481,49.1352 90.5,38.5C 91.7498,38.4226 92.5831,37.756 93,36.5C 93.4828,37.448 93.6495,38.448 93.5,39.5 Z"/></g>
<g><path style="opacity:1" fill="#1f2279" d="M 93.5,39.5 C 93.2053,41.7354 93.5386,43.7354 94.5,45.5C 94.5,45.8333 94.5,46.1667 94.5,46.5C 93.8902,47.391 93.5569,48.391 93.5,49.5C 92.2719,50.3065 91.2719,51.3065 90.5,52.5C 90.6602,50.8008 90.4935,49.1341 90,47.5C 89.6174,48.056 89.1174,48.3893 88.5,48.5C 89.4097,45.0078 91.0764,42.0078 93.5,39.5 Z"/></g>
<g><path style="opacity:1" fill="#212480" d="M 97.5,39.5 C 99.0828,41.6626 100.416,43.9959 101.5,46.5C 100.105,44.9456 99.4387,45.279 99.5,47.5C 100.046,49.1347 100.38,50.8014 100.5,52.5C 99.7281,51.3065 98.7281,50.3065 97.5,49.5C 97.4431,48.391 97.1098,47.391 96.5,46.5C 96.5,46.1667 96.5,45.8333 96.5,45.5C 97.4614,43.7354 97.7947,41.7354 97.5,39.5 Z"/></g>
<g><path style="opacity:1" fill="#21214e" d="M 99.5,38.5 C 98.0755,36.9689 97.4088,37.3023 97.5,39.5C 97.7947,41.7354 97.4614,43.7354 96.5,45.5C 96.3343,41.1539 96.501,36.8206 97,32.5C 97.6667,31.1667 98.3333,31.1667 99,32.5C 99.4955,34.4727 99.6621,36.4727 99.5,38.5 Z"/></g>
<g><path style="opacity:1" fill="#15153d" d="M 94.5,45.5 C 93.5386,43.7354 93.2053,41.7354 93.5,39.5C 93.6495,38.448 93.4828,37.448 93,36.5C 92.5831,37.756 91.7498,38.4226 90.5,38.5C 90.0301,35.6544 90.8634,33.3211 93,31.5C 94.3092,36.0658 94.8092,40.7325 94.5,45.5 Z"/></g>
<g><path style="opacity:1" fill="#d9dbfa" d="M 90.5,-0.5 C 91.5,-0.5 92.5,-0.5 93.5,-0.5C 68.1667,44.1667 42.8333,88.8333 17.5,133.5C 17.0679,134.71 16.4013,135.71 15.5,136.5C 14.8333,136.5 14.5,136.167 14.5,135.5C 39.8454,90.1394 65.1788,44.8061 90.5,-0.5 Z"/></g>
<g><path style="opacity:1" fill="#484a96" d="M 94.5,46.5 C 95.1667,46.5 95.8333,46.5 96.5,46.5C 97.1098,47.391 97.4431,48.391 97.5,49.5C 97.5,50.1667 97.5,50.8333 97.5,51.5C 97.5172,53.5648 97.8505,55.5648 98.5,57.5C 97.8333,57.1667 97.1667,56.8333 96.5,56.5C 96.7989,54.396 96.4656,52.396 95.5,50.5C 94.513,53.7683 94.1796,57.1016 94.5,60.5C 94.1667,60.5 93.8333,60.5 93.5,60.5C 92.4589,57.5422 92.4589,54.5422 93.5,51.5C 93.5,50.8333 93.5,50.1667 93.5,49.5C 93.5569,48.391 93.8902,47.391 94.5,46.5 Z"/></g>
<g><path style="opacity:1" fill="#302eac" d="M 110.5,-0.5 C 111.5,-0.5 112.5,-0.5 113.5,-0.5C 134.596,39.9126 156.929,79.5793 180.5,118.5C 183.663,125.496 187.329,132.162 191.5,138.5C 191.5,139.833 191.5,141.167 191.5,142.5C 187.096,135.488 182.596,128.488 178,121.5C 155.701,80.5545 133.201,39.8878 110.5,-0.5 Z"/></g>
<g><path style="opacity:1" fill="#3632c9" d="M 100.5,-0.5 C 101.167,-0.5 101.833,-0.5 102.5,-0.5C 130.887,50.6026 159.554,101.603 188.5,152.5C 188.376,153.107 188.043,153.44 187.5,153.5C 184.833,149.5 182.167,145.5 179.5,141.5C 176.337,134.504 172.671,127.838 168.5,121.5C 145.833,80.8333 123.167,40.1667 100.5,-0.5 Z"/></g>
<g><path style="opacity:1" fill="#6a67be" d="M 99.5,38.5 C 115.71,66.5721 131.71,94.9054 147.5,123.5C 147.44,124.043 147.107,124.376 146.5,124.5C 145.186,123.687 144.019,122.687 143,121.5C 128.563,96.6081 114.73,71.6081 101.5,46.5C 100.416,43.9959 99.0828,41.6626 97.5,39.5C 97.4088,37.3023 98.0755,36.9689 99.5,38.5 Z"/></g>
<g><path style="opacity:1" fill="#312db1" d="M 78.5,-0.5 C 79.1667,-0.5 79.8333,-0.5 80.5,-0.5C 54.0052,47.8269 27.0052,95.8269 -0.5,143.5C -0.5,141.833 -0.5,140.167 -0.5,138.5C 26.071,92.3644 52.4044,46.031 78.5,-0.5 Z"/></g>
<g><path style="opacity:1" fill="#6662bc" d="M 73.5,70.5 C 73.4088,72.6977 74.0755,73.0311 75.5,71.5C 66.6117,88.273 57.445,104.94 48,121.5C 46.6032,123.07 45.1032,124.404 43.5,125.5C 42.475,125.103 42.3083,124.437 43,123.5C 53.2074,105.738 63.3741,88.0718 73.5,70.5 Z"/></g>
<g><path style="opacity:1" fill="#3530c5" d="M 73.5,-0.5 C 74.1667,-0.5 74.8333,-0.5 75.5,-0.5C 50.3904,44.729 25.0571,89.729 -0.5,134.5C -0.5,133.167 -0.5,131.833 -0.5,130.5C 24.4045,87.0306 49.0711,43.364 73.5,-0.5 Z"/></g>
<g><path style="opacity:1" fill="#3631c6" d="M 88.5,-0.5 C 89.1667,-0.5 89.8333,-0.5 90.5,-0.5C 65.1788,44.8061 39.8454,90.1394 14.5,135.5C 10.941,140.939 7.60762,146.606 4.5,152.5C 4.04311,153.298 3.37644,153.631 2.5,153.5C 31.1687,102.162 59.8354,50.8287 88.5,-0.5 Z"/></g>
<g><path style="opacity:1" fill="#3431c8" d="M 115.5,-0.5 C 116.167,-0.5 116.833,-0.5 117.5,-0.5C 141.943,43.3959 166.61,87.0626 191.5,130.5C 191.5,131.833 191.5,133.167 191.5,134.5C 187.833,128.5 184.167,122.5 180.5,116.5C 159.087,77.3389 137.42,38.3389 115.5,-0.5 Z"/></g>
<g><path style="opacity:1" fill="#0a0a14" d="M 101.5,46.5 C 114.73,71.6081 128.563,96.6081 143,121.5C 144.019,122.687 145.186,123.687 146.5,124.5C 147.107,124.376 147.44,124.043 147.5,123.5C 155.47,129.279 163.637,134.946 172,140.5C 172.278,139.584 172.778,138.918 173.5,138.5C 175.828,142.46 178.161,146.46 180.5,150.5C 179.817,152.176 178.483,152.843 176.5,152.5C 165.896,144.569 155.563,136.236 145.5,127.5C 112.304,128.831 79.137,128.831 46,127.5C 35.233,135.273 25.0664,143.607 15.5,152.5C 13.5853,152.784 11.9187,152.451 10.5,151.5C 21.219,142.758 32.5524,134.592 44.5,127C 45.7119,125.893 45.3786,125.393 43.5,125.5C 45.1032,124.404 46.6032,123.07 48,121.5C 57.445,104.94 66.6117,88.273 75.5,71.5C 80.0831,64.0034 84.4164,56.3367 88.5,48.5C 89.1174,48.3893 89.6174,48.056 90,47.5C 90.4935,49.1341 90.6602,50.8008 90.5,52.5C 77.8603,74.4372 65.1936,96.4372 52.5,118.5C 53.1667,119.167 53.8333,119.833 54.5,120.5C 68.1667,120.833 81.8333,121.167 95.5,121.5C 109.517,121.499 123.183,120.833 136.5,119.5C 138.985,118.74 138.985,117.74 136.5,116.5C 124.989,94.8031 112.989,73.4698 100.5,52.5C 100.38,50.8014 100.046,49.1347 99.5,47.5C 99.4387,45.279 100.105,44.9456 101.5,46.5 Z"/></g>
<g><path style="opacity:1" fill="#000000" d="M 176.5,152.5 C 122.833,152.5 69.1667,152.5 15.5,152.5C 25.0664,143.607 35.233,135.273 46,127.5C 79.137,128.831 112.304,128.831 145.5,127.5C 155.563,136.236 165.896,144.569 176.5,152.5 Z"/></g>
<g><path style="opacity:1" fill="#807bd1" d="M 49.5,124.5 C 80.1685,124.333 110.835,124.5 141.5,125C 142.167,125.667 142.833,126.333 143.5,127C 111.5,127.667 79.5,127.667 47.5,127C 48.3805,126.292 49.0472,125.458 49.5,124.5 Z"/></g>
<g><path style="opacity:1" fill="#151b62" d="M 133.5,115.5 C 134.79,116.058 135.623,117.058 136,118.5C 136.464,117.906 136.631,117.239 136.5,116.5C 138.985,117.74 138.985,118.74 136.5,119.5C 109.661,119.831 82.9948,119.498 56.5,118.5C 82.5021,118.667 108.502,118.5 134.5,118C 133.748,117.329 133.414,116.496 133.5,115.5 Z"/></g>
<g><path style="opacity:1" fill="#020203" d="M 68.5,109.5 C 86.5,109.5 104.5,109.5 122.5,109.5C 104.403,110.179 85.7362,110.845 66.5,111.5C 65.7109,111.783 65.0442,112.283 64.5,113C 85.164,113.5 105.831,113.667 126.5,113.5C 128.718,113.614 130.718,114.28 132.5,115.5C 132.833,115.5 133.167,115.5 133.5,115.5C 133.414,116.496 133.748,117.329 134.5,118C 108.502,118.5 82.5021,118.667 56.5,118.5C 57.8466,115.807 59.1799,113.14 60.5,110.5C 60.8333,110.5 61.1667,110.5 61.5,110.5C 61.56,111.043 61.8933,111.376 62.5,111.5C 63.1818,110.757 63.8485,110.091 64.5,109.5C 65.7024,108.595 67.0357,108.595 68.5,109.5 Z"/></g>
<g><path style="opacity:1" fill="#393c7d" d="M 66.5,111.5 C 86.8613,110.845 106.861,111.512 126.5,113.5C 105.831,113.667 85.164,113.5 64.5,113C 65.0442,112.283 65.7109,111.783 66.5,111.5 Z"/></g>
<g><path style="opacity:1" fill="#5456a9" d="M 86.5,74.5 C 86.5394,75.5832 86.8728,76.5832 87.5,77.5C 84.6308,83.8689 81.1308,89.8689 77,95.5C 76.2599,96.7494 76.4265,97.7494 77.5,98.5C 83.1275,99.8293 89.1275,100.496 95.5,100.5C 101.676,100.5 107.676,100.166 113.5,99.5C 114.167,100.167 114.833,100.833 115.5,101.5C 102.344,102.496 89.0105,102.829 75.5,102.5C 75.6567,101.127 75.49,99.7932 75,98.5C 73.2467,101.005 71.7467,103.671 70.5,106.5C 87.1667,107.833 103.833,107.833 120.5,106.5C 119.153,103.807 117.82,101.14 116.5,98.5C 112.108,92.0657 107.941,85.399 104,78.5C 103.235,76.9343 103.402,75.6009 104.5,74.5C 110.934,85.1914 117.268,96.0248 123.5,107C 122.748,107.671 122.414,108.504 122.5,109.5C 104.5,109.5 86.5,109.5 68.5,109.5C 68.5858,108.504 68.2524,107.671 67.5,107C 73.7473,95.9893 80.0807,85.156 86.5,74.5 Z"/></g>
<g><path style="opacity:1" fill="#696bc0" d="M 89.5,62.5 C 89.4431,63.609 89.1098,64.609 88.5,65.5C 80.5021,80.162 72.5021,94.8287 64.5,109.5C 63.8485,110.091 63.1818,110.757 62.5,111.5C 61.8933,111.376 61.56,111.043 61.5,110.5C 70.8333,94.5 80.1667,78.5 89.5,62.5 Z"/></g>
<g><path style="opacity:1" fill="#040512" d="M 115.5,101.5 C 115.263,100.209 115.596,99.209 116.5,98.5C 117.82,101.14 119.153,103.807 120.5,106.5C 103.833,107.833 87.1667,107.833 70.5,106.5C 71.7467,103.671 73.2467,101.005 75,98.5C 75.49,99.7932 75.6567,101.127 75.5,102.5C 89.0105,102.829 102.344,102.496 115.5,101.5 Z"/></g>
<g><path style="opacity:1" fill="#424684" d="M 73.5,103.5 C 88.1818,103.167 102.848,103.501 117.5,104.5C 110.167,104.833 102.833,105.167 95.5,105.5C 87.8016,105.497 80.4682,104.831 73.5,103.5 Z"/></g>
<g><path style="opacity:1" fill="#8080d9" d="M 93.5,49.5 C 93.5,50.1667 93.5,50.8333 93.5,51.5C 91.9172,53.6626 90.5839,55.9959 89.5,58.5C 79.3298,75.5027 69.6631,92.8361 60.5,110.5C 59.1799,113.14 57.8466,115.807 56.5,118.5C 82.9948,119.498 109.661,119.831 136.5,119.5C 123.183,120.833 109.517,121.499 95.5,121.5C 81.8333,121.167 68.1667,120.833 54.5,120.5C 53.8333,119.833 53.1667,119.167 52.5,118.5C 65.1936,96.4372 77.8603,74.4372 90.5,52.5C 91.2719,51.3065 92.2719,50.3065 93.5,49.5 Z"/></g>
<g><path style="opacity:1" fill="#1d2043" d="M 111.5,96.5 C 112.906,96.9731 113.573,97.9731 113.5,99.5C 107.676,100.166 101.676,100.5 95.5,100.5C 89.1275,100.496 83.1275,99.8293 77.5,98.5C 77.5,97.8333 77.8333,97.5 78.5,97.5C 89.6794,97.8279 100.679,97.4946 111.5,96.5 Z"/></g>
<g><path style="opacity:1" fill="#7f7dd2" d="M 97.5,49.5 C 98.7281,50.3065 99.7281,51.3065 100.5,52.5C 112.989,73.4698 124.989,94.8031 136.5,116.5C 136.631,117.239 136.464,117.906 136,118.5C 135.623,117.058 134.79,116.058 133.5,115.5C 133.167,115.5 132.833,115.5 132.5,115.5C 131.833,113.5 131.167,111.5 130.5,109.5C 119.991,89.8063 108.991,70.473 97.5,51.5C 97.5,50.8333 97.5,50.1667 97.5,49.5 Z"/></g>
<g><path style="opacity:1" fill="#100f22" d="M 102.5,65.5 C 110.654,80.4729 118.821,95.4729 127,110.5C 127.977,111.774 128.811,111.774 129.5,110.5C 129.5,109.833 129.833,109.5 130.5,109.5C 131.167,111.5 131.833,113.5 132.5,115.5C 130.718,114.28 128.718,113.614 126.5,113.5C 106.861,111.512 86.8613,110.845 66.5,111.5C 85.7362,110.845 104.403,110.179 122.5,109.5C 122.414,108.504 122.748,107.671 123.5,107C 117.268,96.0248 110.934,85.1914 104.5,74.5C 103.486,72.4261 102.486,70.4261 101.5,68.5C 101.263,67.209 101.596,66.209 102.5,65.5 Z"/></g>
<g><path style="opacity:1" fill="#0a0719" d="M 88.5,65.5 C 89.404,66.209 89.7373,67.209 89.5,68.5C 88.5139,70.4261 87.5139,72.4261 86.5,74.5C 80.0807,85.156 73.7473,95.9893 67.5,107C 68.2524,107.671 68.5858,108.504 68.5,109.5C 67.0357,108.595 65.7024,108.595 64.5,109.5C 72.5021,94.8287 80.5021,80.162 88.5,65.5 Z"/></g>
<g><path style="opacity:1" fill="#1f206d" d="M 89.5,58.5 C 90.3543,59.6316 90.3543,60.965 89.5,62.5C 80.1667,78.5 70.8333,94.5 61.5,110.5C 61.1667,110.5 60.8333,110.5 60.5,110.5C 69.6631,92.8361 79.3298,75.5027 89.5,58.5 Z"/></g>
<g><path style="opacity:1" fill="#6b6ebf" d="M 102.5,64.5 C 111.5,79.8333 120.5,95.1667 129.5,110.5C 128.811,111.774 127.977,111.774 127,110.5C 118.821,95.4729 110.654,80.4729 102.5,65.5C 102.5,65.1667 102.5,64.8333 102.5,64.5 Z"/></g>
<g><path style="opacity:1" fill="#696ed7" d="M 93.5,60.5 C 93.8333,60.5 94.1667,60.5 94.5,60.5C 95.1667,60.5 95.8333,60.5 96.5,60.5C 98.1807,63.2028 99.8474,65.8695 101.5,68.5C 102.486,70.4261 103.486,72.4261 104.5,74.5C 103.402,75.6009 103.235,76.9343 104,78.5C 107.941,85.399 112.108,92.0657 116.5,98.5C 115.596,99.209 115.263,100.209 115.5,101.5C 114.833,100.833 114.167,100.167 113.5,99.5C 113.573,97.9731 112.906,96.9731 111.5,96.5C 110.733,95.828 110.066,94.9947 109.5,94C 100.167,93.3333 90.8333,93.3333 81.5,94C 80.635,95.3588 79.635,96.5255 78.5,97.5C 77.8333,97.5 77.5,97.8333 77.5,98.5C 76.4265,97.7494 76.2599,96.7494 77,95.5C 81.1308,89.8689 84.6308,83.8689 87.5,77.5C 86.8728,76.5832 86.5394,75.5832 86.5,74.5C 87.5139,72.4261 88.5139,70.4261 89.5,68.5C 91.3622,66.1089 92.6955,63.4422 93.5,60.5 Z"/></g>
<g><path style="opacity:1" fill="#2a2e65" d="M 111.5,96.5 C 100.679,97.4946 89.6794,97.8279 78.5,97.5C 79.635,96.5255 80.635,95.3588 81.5,94C 90.8333,93.3333 100.167,93.3333 109.5,94C 110.066,94.9947 110.733,95.828 111.5,96.5 Z"/></g>
<g><path style="opacity:1" fill="#2c3262" d="M 94.5,71.5 C 96.6237,72.0312 98.1237,73.3645 99,75.5C 101.454,81.0894 104.288,86.4228 107.5,91.5C 99.5,92.8333 91.5,92.8333 83.5,91.5C 87.1287,84.8562 90.7954,78.1895 94.5,71.5 Z"/></g>
<g><path style="opacity:1" fill="#232374" d="M 97.5,51.5 C 108.991,70.473 119.991,89.8063 130.5,109.5C 129.833,109.5 129.5,109.833 129.5,110.5C 120.5,95.1667 111.5,79.8333 102.5,64.5C 101.921,61.6689 100.588,59.3356 98.5,57.5C 97.8505,55.5648 97.5172,53.5648 97.5,51.5 Z"/></g>
<g><path style="opacity:1" fill="#29309d" d="M 96.5,56.5 C 97.1667,56.8333 97.8333,57.1667 98.5,57.5C 99.0787,60.3311 100.412,62.6644 102.5,64.5C 102.5,64.8333 102.5,65.1667 102.5,65.5C 101.596,66.209 101.263,67.209 101.5,68.5C 99.8474,65.8695 98.1807,63.2028 96.5,60.5C 96.5,59.1667 96.5,57.8333 96.5,56.5 Z"/></g>
<g><path style="opacity:1" fill="#2b2c47" d="M 94.5,62.5 C 95.5862,62.62 96.2528,63.2867 96.5,64.5C 96.1667,65.1667 95.8333,65.8333 95.5,66.5C 94.5713,65.3112 94.238,63.9778 94.5,62.5 Z"/></g>
<g><path style="opacity:1" fill="#3e41ad" d="M 93.5,51.5 C 92.4589,54.5422 92.4589,57.5422 93.5,60.5C 92.6955,63.4422 91.3622,66.1089 89.5,68.5C 89.7373,67.209 89.404,66.209 88.5,65.5C 89.1098,64.609 89.4431,63.609 89.5,62.5C 90.3543,60.965 90.3543,59.6316 89.5,58.5C 90.5839,55.9959 91.9172,53.6626 93.5,51.5 Z"/></g>
<g><path style="opacity:1" fill="#7c7fd9" d="M 98.5,57.5 C 100.588,59.3356 101.921,61.6689 102.5,64.5C 100.412,62.6644 99.0787,60.3311 98.5,57.5 Z"/></g>
<g><path style="opacity:1" fill="#18181e" d="M 96.5,56.5 C 96.5,57.8333 96.5,59.1667 96.5,60.5C 95.8333,60.5 95.1667,60.5 94.5,60.5C 94.1796,57.1016 94.513,53.7683 95.5,50.5C 96.4656,52.396 96.7989,54.396 96.5,56.5 Z"/></g>
<g><path style="opacity:1" fill="#a3a6f9" d="M 168.5,121.5 C 172.671,127.838 176.337,134.504 179.5,141.5C 179.5,142.167 179.167,142.5 178.5,142.5C 177.087,139.339 175.42,136.339 173.5,133.5C 171.234,129.966 169.234,126.3 167.5,122.5C 168.167,122.5 168.5,122.167 168.5,121.5 Z"/></g>
<g><path style="opacity:1" fill="#a7a9f9" d="M 180.5,116.5 C 184.167,122.5 187.833,128.5 191.5,134.5C 191.5,135.833 191.5,137.167 191.5,138.5C 187.329,132.162 183.663,125.496 180.5,118.5C 180.5,117.833 180.5,117.167 180.5,116.5 Z"/></g>
<g><path style="opacity:1" fill="#a7a7f4" d="M 14.5,135.5 C 14.5,136.167 14.8333,136.5 15.5,136.5C 12.2453,142.008 9.24528,147.675 6.5,153.5C 5.66175,153.842 5.32842,154.508 5.5,155.5C 4.83333,155.167 4.16667,154.833 3.5,154.5C 2.83333,154.5 2.5,154.167 2.5,153.5C 3.37644,153.631 4.04311,153.298 4.5,152.5C 7.60762,146.606 10.941,140.939 14.5,135.5 Z"/></g>
<g><path style="opacity:1" fill="#3133c8" d="M 17.5,133.5 C 18.3382,133.842 18.6716,134.508 18.5,135.5C 16.0731,140.69 13.4065,145.69 10.5,150.5C 9.59603,151.209 9.26269,152.209 9.5,153.5C 66.8333,153.5 124.167,153.5 181.5,153.5C 181.737,152.209 181.404,151.209 180.5,150.5C 178.161,146.46 175.828,142.46 173.5,138.5C 173.443,137.391 173.11,136.391 172.5,135.5C 172.328,134.508 172.662,133.842 173.5,133.5C 175.42,136.339 177.087,139.339 178.5,142.5C 181.046,146.259 183.046,150.259 184.5,154.5C 165.833,154.5 147.167,154.5 128.5,154.5C 87.6632,154.832 46.9966,154.499 6.5,153.5C 9.24528,147.675 12.2453,142.008 15.5,136.5C 16.4013,135.71 17.0679,134.71 17.5,133.5 Z"/></g>
<g><path style="opacity:1" fill="#15175b" d="M 10.5,150.5 C 10.5,150.833 10.5,151.167 10.5,151.5C 11.9187,152.451 13.5853,152.784 15.5,152.5C 69.1667,152.5 122.833,152.5 176.5,152.5C 178.483,152.843 179.817,152.176 180.5,150.5C 181.404,151.209 181.737,152.209 181.5,153.5C 124.167,153.5 66.8333,153.5 9.5,153.5C 9.26269,152.209 9.59603,151.209 10.5,150.5 Z"/></g>
<g><path style="opacity:1" fill="#999bf7" d="M 6.5,153.5 C 46.9966,154.499 87.6632,154.832 128.5,154.5C 128.5,154.833 128.5,155.167 128.5,155.5C 87.5,155.5 46.5,155.5 5.5,155.5C 5.32842,154.508 5.66175,153.842 6.5,153.5 Z"/></g>
<g><path style="opacity:1" fill="#7a7bf5" d="M 179.5,141.5 C 182.167,145.5 184.833,149.5 187.5,153.5C 187.167,154.167 186.833,154.833 186.5,155.5C 186.167,155.5 185.833,155.5 185.5,155.5C 166.5,155.5 147.5,155.5 128.5,155.5C 128.5,155.167 128.5,154.833 128.5,154.5C 147.167,154.5 165.833,154.5 184.5,154.5C 183.046,150.259 181.046,146.259 178.5,142.5C 179.167,142.5 179.5,142.167 179.5,141.5 Z"/></g>
<g><path style="opacity:1" fill="#06050c" d="M 3.5,154.5 C 4.16667,154.833 4.83333,155.167 5.5,155.5C 5.5,156.167 5.5,156.833 5.5,157.5C 35.1592,158.833 65.1592,159.5 95.5,159.5C 125.841,159.5 155.841,158.833 185.5,157.5C 185.5,156.833 185.5,156.167 185.5,155.5C 185.833,155.5 186.167,155.5 186.5,155.5C 188.142,156.803 189.809,158.136 191.5,159.5C 191.5,161.5 191.5,163.5 191.5,165.5C 127.5,165.5 63.5,165.5 -0.5,165.5C -0.5,163.5 -0.5,161.5 -0.5,159.5C 1.99709,158.871 3.33043,157.204 3.5,154.5 Z"/></g>
<g><path style="opacity:1" fill="#1b1ca1" d="M 5.5,157.5 C 65.5,157.5 125.5,157.5 185.5,157.5C 155.841,158.833 125.841,159.5 95.5,159.5C 65.1592,159.5 35.1592,158.833 5.5,157.5 Z"/></g>
<g><path style="opacity:1" fill="#c5c6fa" d="M 5.5,155.5 C 46.5,155.5 87.5,155.5 128.5,155.5C 147.5,155.5 166.5,155.5 185.5,155.5C 185.5,156.167 185.5,156.833 185.5,157.5C 125.5,157.5 65.5,157.5 5.5,157.5C 5.5,156.833 5.5,156.167 5.5,155.5 Z"/></g>
<g><path style="opacity:1" fill="#4c4dd4" d="M -0.5,165.5 C 63.5,165.5 127.5,165.5 191.5,165.5C 191.5,166.167 191.5,166.833 191.5,167.5C 172.167,167.5 152.833,167.5 133.5,167.5C 88.8333,167.5 44.1667,167.5 -0.5,167.5C -0.5,166.833 -0.5,166.167 -0.5,165.5 Z"/></g>
<g><path style="opacity:1" fill="#e7e8fa" d="M -0.5,167.5 C 44.1667,167.5 88.8333,167.5 133.5,167.5C 146.833,168.167 160.167,168.833 173.5,169.5C 115.5,169.5 57.5,169.5 -0.5,169.5C -0.5,168.833 -0.5,168.167 -0.5,167.5 Z"/></g>
<g><path style="opacity:1" fill="#bdbffa" d="M 133.5,167.5 C 152.833,167.5 172.167,167.5 191.5,167.5C 191.5,168.167 191.5,168.833 191.5,169.5C 185.5,169.5 179.5,169.5 173.5,169.5C 160.167,168.833 146.833,168.167 133.5,167.5 Z"/></g>
<g><path style="opacity:1" fill="#3d38d8" d="M -0.5,169.5 C 57.5,169.5 115.5,169.5 173.5,169.5C 179.5,169.5 185.5,169.5 191.5,169.5C 191.5,170.167 191.5,170.833 191.5,171.5C 127.5,171.5 63.5,171.5 -0.5,171.5C -0.5,170.833 -0.5,170.167 -0.5,169.5 Z"/></g>
<g><path style="opacity:1" fill="#000003" d="M -0.5,171.5 C 63.5,171.5 127.5,171.5 191.5,171.5C 191.5,178.167 191.5,184.833 191.5,191.5C 127.5,191.5 63.5,191.5 -0.5,191.5C -0.5,184.833 -0.5,178.167 -0.5,171.5 Z"/></g>
</svg>
